<svg width="6" height="24" viewBox="0 0 6 24" fill="none" xmlns="http://www.w3.org/2000/svg">
<path d="M3.0002 6.40005C2.25759 6.40005 1.5454 6.10505 1.0203 5.57995C0.495195 5.05485 0.200195 4.34265 0.200195 3.60005C0.200195 2.85744 0.495195 2.14525 1.0203 1.62015C1.5454 1.09505 2.25759 0.800049 3.0002 0.800049C3.7428 0.800049 4.45499 1.09505 4.98009 1.62015C5.5052 2.14525 5.8002 2.85744 5.8002 3.60005C5.8002 4.34265 5.5052 5.05485 4.98009 5.57995C4.45499 6.10505 3.7428 6.40005 3.0002 6.40005ZM3.0002 14.8C2.25759 14.8 1.5454 14.505 1.0203 13.9799C0.495195 13.4548 0.200195 12.7427 0.200195 12C0.200195 11.2574 0.495195 10.5453 1.0203 10.0202C1.5454 9.49505 2.25759 9.20005 3.0002 9.20005C3.7428 9.20005 4.45499 9.49505 4.98009 10.0202C5.5052 10.5453 5.8002 11.2574 5.8002 12C5.8002 12.7427 5.5052 13.4548 4.98009 13.9799C4.45499 14.505 3.7428 14.8 3.0002 14.8ZM3.0002 23.2C2.25759 23.2 1.5454 22.905 1.0203 22.3799C0.495195 21.8548 0.200195 21.1427 0.200195 20.4C0.200195 19.6574 0.495195 18.9453 1.0203 18.4202C1.5454 17.895 2.25759 17.6 3.0002 17.6C3.7428 17.6 4.45499 17.895 4.98009 18.4202C5.5052 18.9453 5.8002 19.6574 5.8002 20.4C5.8002 21.1427 5.5052 21.8548 4.98009 22.3799C4.45499 22.905 3.7428 23.2 3.0002 23.2Z" fill="#273E47"/>
</svg>
