<svg width="921" height="80" viewBox="0 0 921 80" fill="none" xmlns="http://www.w3.org/2000/svg">
<path d="M194.667 44.6667V45.8334C194.667 46.7616 195.036 47.6519 195.692 48.3082C196.348 48.9646 197.239 49.3334 198.167 49.3334H209.834C210.762 49.3334 211.652 48.9646 212.309 48.3082C212.965 47.6519 213.334 46.7616 213.334 45.8334V44.6667M208.667 35.3334L204 30.6667M204 30.6667L199.334 35.3334M204 30.6667V44.6667" stroke="#273E47" stroke-width="2" stroke-linecap="round" stroke-linejoin="round"/>
<path d="M267 48.336C264.584 48.336 262.64 47.504 261.168 45.84C259.696 44.176 258.96 42.032 258.96 39.408C258.96 36.816 259.688 34.68 261.144 33C262.616 31.304 264.6 30.456 267.096 30.456C269.048 30.456 270.624 30.96 271.824 31.968C273.024 32.976 273.744 34.296 273.984 35.928H271.872C271.664 34.84 271.136 33.968 270.288 33.312C269.456 32.656 268.376 32.328 267.048 32.328C265.208 32.328 263.768 32.992 262.728 34.32C261.688 35.632 261.168 37.328 261.168 39.408C261.168 41.52 261.704 43.224 262.776 44.52C263.864 45.8 265.296 46.44 267.072 46.44C268.608 46.44 269.792 45.992 270.624 45.096C271.472 44.2 271.952 43.072 272.064 41.712H274.2C274.184 42.56 273.984 43.432 273.6 44.328C273.232 45.208 272.744 45.944 272.136 46.536C270.904 47.736 269.192 48.336 267 48.336ZM277.8 30.84V37.224H277.848C278.808 35.944 280.12 35.304 281.784 35.304C283.096 35.304 284.12 35.648 284.856 36.336C285.592 37.024 285.96 38.008 285.96 39.288V48H284.016V39.456C284.016 38.656 283.768 38.04 283.272 37.608C282.776 37.16 282.088 36.936 281.208 36.936C280.216 36.936 279.4 37.256 278.76 37.896C278.12 38.536 277.8 39.36 277.8 40.368V48H275.856V30.84H277.8ZM297.703 46.464C296.615 47.712 295.167 48.336 293.359 48.336C291.551 48.336 290.095 47.712 288.991 46.464C287.903 45.216 287.359 43.664 287.359 41.808C287.359 39.952 287.903 38.4 288.991 37.152C290.095 35.904 291.551 35.28 293.359 35.28C295.167 35.28 296.615 35.904 297.703 37.152C298.791 38.4 299.335 39.952 299.335 41.808C299.335 43.664 298.791 45.216 297.703 46.464ZM290.383 45.336C291.087 46.248 292.079 46.704 293.359 46.704C294.639 46.704 295.623 46.248 296.311 45.336C296.999 44.408 297.343 43.232 297.343 41.808C297.343 40.368 296.991 39.192 296.287 38.28C295.599 37.352 294.623 36.888 293.359 36.888C292.079 36.888 291.087 37.352 290.383 38.28C289.695 39.208 289.351 40.384 289.351 41.808C289.351 43.232 289.695 44.408 290.383 45.336ZM310.442 46.464C309.354 47.712 307.906 48.336 306.098 48.336C304.29 48.336 302.834 47.712 301.73 46.464C300.642 45.216 300.098 43.664 300.098 41.808C300.098 39.952 300.642 38.4 301.73 37.152C302.834 35.904 304.29 35.28 306.098 35.28C307.906 35.28 309.354 35.904 310.442 37.152C311.53 38.4 312.074 39.952 312.074 41.808C312.074 43.664 311.53 45.216 310.442 46.464ZM303.122 45.336C303.826 46.248 304.818 46.704 306.098 46.704C307.378 46.704 308.362 46.248 309.05 45.336C309.738 44.408 310.082 43.232 310.082 41.808C310.082 40.368 309.73 39.192 309.026 38.28C308.338 37.352 307.362 36.888 306.098 36.888C304.818 36.888 303.826 37.352 303.122 38.28C302.434 39.208 302.09 40.384 302.09 41.808C302.09 43.232 302.434 44.408 303.122 45.336ZM318.237 48.36C316.541 48.36 315.221 47.984 314.277 47.232C313.349 46.464 312.837 45.376 312.741 43.968H314.733C314.957 45.808 316.141 46.728 318.285 46.728C319.261 46.728 319.981 46.544 320.445 46.176C320.925 45.792 321.165 45.296 321.165 44.688C321.165 44.032 320.933 43.56 320.469 43.272C320.005 42.984 319.157 42.712 317.925 42.456C317.413 42.344 317.005 42.256 316.701 42.192C316.413 42.112 316.061 42.008 315.645 41.88C315.229 41.736 314.901 41.584 314.661 41.424C314.437 41.248 314.205 41.04 313.965 40.8C313.725 40.56 313.549 40.264 313.437 39.912C313.341 39.56 313.293 39.168 313.293 38.736C313.293 37.68 313.677 36.848 314.445 36.24C315.229 35.632 316.333 35.328 317.757 35.328C320.701 35.328 322.325 36.624 322.629 39.216H320.637C320.541 38.4 320.261 37.808 319.797 37.44C319.333 37.056 318.637 36.864 317.709 36.864C316.861 36.864 316.229 37.032 315.813 37.368C315.413 37.688 315.213 38.112 315.213 38.64C315.213 39.248 315.453 39.68 315.933 39.936C316.413 40.176 317.285 40.424 318.549 40.68C319.317 40.84 319.917 40.992 320.349 41.136C320.797 41.264 321.261 41.472 321.741 41.76C322.221 42.032 322.573 42.4 322.797 42.864C323.021 43.328 323.133 43.904 323.133 44.592C323.133 45.808 322.685 46.744 321.789 47.4C320.893 48.04 319.709 48.36 318.237 48.36ZM330.052 48.336C328.212 48.336 326.748 47.72 325.66 46.488C324.588 45.24 324.052 43.68 324.052 41.808C324.052 39.968 324.596 38.424 325.684 37.176C326.788 35.912 328.204 35.28 329.932 35.28C331.756 35.28 333.164 35.92 334.156 37.2C335.148 38.464 335.644 40.152 335.644 42.264H326.044C326.124 43.576 326.508 44.648 327.196 45.48C327.9 46.296 328.852 46.704 330.052 46.704C331.908 46.704 333.052 45.856 333.484 44.16H335.38C335.092 45.488 334.484 46.52 333.556 47.256C332.628 47.976 331.46 48.336 330.052 48.336ZM332.524 37.872C331.9 37.168 331.036 36.816 329.932 36.816C328.828 36.816 327.948 37.184 327.292 37.92C326.652 38.656 326.252 39.616 326.092 40.8H333.556C333.492 39.552 333.148 38.576 332.524 37.872ZM340.693 48V30.84H352.333V32.736H342.853V38.088H350.749V39.912H342.853V48H340.693ZM353.8 48V35.592H355.744V48H353.8ZM353.8 33.24V30.84H355.744V33.24H353.8ZM357.986 48V30.84H359.93V48H357.986ZM367.472 48.336C365.632 48.336 364.168 47.72 363.08 46.488C362.008 45.24 361.472 43.68 361.472 41.808C361.472 39.968 362.016 38.424 363.104 37.176C364.208 35.912 365.624 35.28 367.352 35.28C369.176 35.28 370.584 35.92 371.576 37.2C372.568 38.464 373.064 40.152 373.064 42.264H363.464C363.544 43.576 363.928 44.648 364.616 45.48C365.32 46.296 366.272 46.704 367.472 46.704C369.328 46.704 370.472 45.856 370.904 44.16H372.8C372.512 45.488 371.904 46.52 370.976 47.256C370.048 47.976 368.88 48.336 367.472 48.336ZM369.944 37.872C369.32 37.168 368.456 36.816 367.352 36.816C366.248 36.816 365.368 37.184 364.712 37.92C364.072 38.656 363.672 39.616 363.512 40.8H370.976C370.912 39.552 370.568 38.576 369.944 37.872ZM381.714 50.832C380.61 49.136 379.746 47.424 379.122 45.696C378.514 43.968 378.21 42.056 378.21 39.96C378.21 36.52 379.378 33.168 381.714 29.904H383.298C381.426 33.088 380.49 36.44 380.49 39.96C380.49 43.768 381.426 47.392 383.298 50.832H381.714ZM392.315 48.336C389.899 48.336 387.955 47.504 386.483 45.84C385.011 44.176 384.275 42.032 384.275 39.408C384.275 36.816 385.003 34.68 386.459 33C387.931 31.304 389.915 30.456 392.411 30.456C394.363 30.456 395.939 30.96 397.139 31.968C398.339 32.976 399.059 34.296 399.299 35.928H397.187C396.979 34.84 396.451 33.968 395.603 33.312C394.771 32.656 393.691 32.328 392.363 32.328C390.523 32.328 389.083 32.992 388.043 34.32C387.003 35.632 386.483 37.328 386.483 39.408C386.483 41.52 387.019 43.224 388.091 44.52C389.179 45.8 390.611 46.44 392.387 46.44C393.923 46.44 395.107 45.992 395.939 45.096C396.787 44.2 397.267 43.072 397.379 41.712H399.515C399.499 42.56 399.299 43.432 398.915 44.328C398.547 45.208 398.059 45.944 397.451 46.536C396.219 47.736 394.507 48.336 392.315 48.336ZM405.715 48L399.739 30.84H402.067L406.291 43.608L406.963 45.912H407.011C407.283 44.888 407.507 44.12 407.683 43.608L411.859 30.84H414.115L408.091 48H405.715ZM412.802 51.072V49.992C413.522 49.736 413.882 49.072 413.882 48H412.778V45.624H415.106V48.072C415.106 48.92 414.898 49.592 414.482 50.088C414.066 50.6 413.506 50.928 412.802 51.072ZM426.86 48.336C424.556 48.336 422.78 47.768 421.532 46.632C420.3 45.496 419.636 44.016 419.54 42.192H421.652C421.94 45.136 423.708 46.608 426.956 46.608C428.188 46.608 429.172 46.336 429.908 45.792C430.66 45.232 431.036 44.432 431.036 43.392C431.036 42.928 430.948 42.52 430.772 42.168C430.596 41.816 430.38 41.528 430.124 41.304C429.884 41.08 429.516 40.872 429.02 40.68C428.524 40.488 428.06 40.336 427.628 40.224C427.212 40.112 426.636 39.976 425.9 39.816C425.02 39.624 424.292 39.432 423.716 39.24C423.14 39.032 422.564 38.752 421.988 38.4C421.412 38.048 420.98 37.6 420.692 37.056C420.42 36.496 420.284 35.824 420.284 35.04C420.284 33.632 420.812 32.528 421.868 31.728C422.94 30.912 424.356 30.504 426.116 30.504C429.972 30.504 432.14 32.288 432.62 35.856H430.58C430.42 34.64 429.964 33.728 429.212 33.12C428.46 32.496 427.444 32.184 426.164 32.184C424.98 32.184 424.036 32.424 423.332 32.904C422.644 33.384 422.3 34.064 422.3 34.944C422.3 35.328 422.372 35.672 422.516 35.976C422.676 36.264 422.876 36.512 423.116 36.72C423.372 36.912 423.7 37.088 424.1 37.248C424.516 37.408 424.924 37.544 425.324 37.656C425.724 37.752 426.212 37.856 426.788 37.968C427.588 38.128 428.244 38.28 428.756 38.424C429.268 38.552 429.836 38.752 430.46 39.024C431.084 39.296 431.564 39.608 431.9 39.96C432.252 40.312 432.548 40.776 432.788 41.352C433.044 41.912 433.172 42.568 433.172 43.32C433.172 44.888 432.588 46.12 431.42 47.016C430.268 47.896 428.748 48.336 426.86 48.336ZM449.011 45.84C447.491 47.52 445.459 48.36 442.915 48.36C440.371 48.36 438.331 47.52 436.795 45.84C435.275 44.16 434.515 42.016 434.515 39.408C434.515 36.8 435.275 34.656 436.795 32.976C438.331 31.296 440.371 30.456 442.915 30.456C445.459 30.456 447.491 31.296 449.011 32.976C450.547 34.656 451.315 36.8 451.315 39.408C451.315 42.016 450.547 44.16 449.011 45.84ZM438.355 44.496C439.443 45.808 440.963 46.464 442.915 46.464C444.867 46.464 446.387 45.808 447.475 44.496C448.563 43.184 449.107 41.488 449.107 39.408C449.107 37.328 448.563 35.632 447.475 34.32C446.387 32.992 444.867 32.328 442.915 32.328C440.963 32.328 439.443 32.992 438.355 34.32C437.267 35.632 436.723 37.328 436.723 39.408C436.723 41.488 437.267 43.184 438.355 44.496ZM453.41 48V30.84H460.562C462.354 30.84 463.714 31.392 464.642 32.496C465.41 33.392 465.794 34.48 465.794 35.76C465.794 37.36 465.33 38.6 464.402 39.48C463.474 40.36 462.09 40.8 460.25 40.8H455.57V48H453.41ZM455.57 32.712V39.048H460.082C461.266 39.048 462.154 38.768 462.746 38.208C463.354 37.648 463.658 36.864 463.658 35.856C463.658 34.832 463.354 34.056 462.746 33.528C462.154 32.984 461.306 32.712 460.202 32.712H455.57ZM464.472 51.072V49.992C465.192 49.736 465.552 49.072 465.552 48H464.448V45.624H466.776V48.072C466.776 48.92 466.568 49.592 466.152 50.088C465.736 50.6 465.176 50.928 464.472 51.072ZM472.29 48V30.84H480.306C481.81 30.84 483.026 31.272 483.954 32.136C484.898 33 485.37 34.136 485.37 35.544C485.37 37.736 484.378 39.152 482.394 39.792V39.864C483.242 40.168 483.842 40.648 484.194 41.304C484.562 41.944 484.786 42.92 484.866 44.232C485.026 46.424 485.29 47.648 485.658 47.904V48H483.33C483.154 47.856 483.026 47.552 482.946 47.088C482.882 46.624 482.802 45.648 482.706 44.16C482.626 42.912 482.314 42.032 481.77 41.52C481.242 41.008 480.394 40.752 479.226 40.752H474.45V48H472.29ZM474.45 32.712V39H479.538C480.722 39 481.618 38.728 482.226 38.184C482.834 37.624 483.138 36.848 483.138 35.856C483.138 34.784 482.866 33.992 482.322 33.48C481.778 32.968 480.89 32.712 479.658 32.712H474.45ZM492.412 48.336C490.572 48.336 489.108 47.72 488.02 46.488C486.948 45.24 486.412 43.68 486.412 41.808C486.412 39.968 486.956 38.424 488.044 37.176C489.148 35.912 490.564 35.28 492.292 35.28C494.116 35.28 495.524 35.92 496.516 37.2C497.508 38.464 498.004 40.152 498.004 42.264H488.404C488.484 43.576 488.868 44.648 489.556 45.48C490.26 46.296 491.212 46.704 492.412 46.704C494.268 46.704 495.412 45.856 495.844 44.16H497.74C497.452 45.488 496.844 46.52 495.916 47.256C494.988 47.976 493.82 48.336 492.412 48.336ZM494.884 37.872C494.26 37.168 493.396 36.816 492.292 36.816C491.188 36.816 490.308 37.184 489.652 37.92C489.012 38.656 488.612 39.616 488.452 40.8H495.916C495.852 39.552 495.508 38.576 494.884 37.872ZM504.729 48.336C502.921 48.336 501.465 47.712 500.361 46.464C499.273 45.216 498.729 43.664 498.729 41.808C498.729 39.952 499.273 38.4 500.361 37.152C501.465 35.904 502.921 35.28 504.729 35.28C506.185 35.28 507.377 35.672 508.305 36.456C509.233 37.224 509.809 38.272 510.033 39.6H508.065C507.921 38.752 507.561 38.088 506.985 37.608C506.409 37.128 505.657 36.888 504.729 36.888C503.449 36.888 502.457 37.352 501.753 38.28C501.065 39.208 500.721 40.384 500.721 41.808C500.721 43.232 501.065 44.408 501.753 45.336C502.457 46.248 503.449 46.704 504.729 46.704C505.721 46.704 506.513 46.44 507.105 45.912C507.697 45.368 508.033 44.608 508.113 43.632H510.033C509.905 45.12 509.377 46.28 508.449 47.112C507.521 47.928 506.281 48.336 504.729 48.336ZM521.038 46.464C519.95 47.712 518.502 48.336 516.694 48.336C514.886 48.336 513.43 47.712 512.326 46.464C511.238 45.216 510.694 43.664 510.694 41.808C510.694 39.952 511.238 38.4 512.326 37.152C513.43 35.904 514.886 35.28 516.694 35.28C518.502 35.28 519.95 35.904 521.038 37.152C522.126 38.4 522.67 39.952 522.67 41.808C522.67 43.664 522.126 45.216 521.038 46.464ZM513.718 45.336C514.422 46.248 515.414 46.704 516.694 46.704C517.974 46.704 518.958 46.248 519.646 45.336C520.334 44.408 520.678 43.232 520.678 41.808C520.678 40.368 520.326 39.192 519.622 38.28C518.934 37.352 517.958 36.888 516.694 36.888C515.414 36.888 514.422 37.352 513.718 38.28C513.03 39.208 512.686 40.384 512.686 41.808C512.686 43.232 513.03 44.408 513.718 45.336ZM524.129 48V35.592H526.073V37.368H526.121C526.521 36.744 527.041 36.248 527.681 35.88C528.321 35.496 529.017 35.304 529.769 35.304C531.385 35.304 532.465 36.04 533.009 37.512H533.057C533.441 36.824 533.977 36.288 534.665 35.904C535.353 35.504 536.081 35.304 536.849 35.304C537.985 35.304 538.897 35.656 539.585 36.36C540.273 37.048 540.617 38.024 540.617 39.288V48H538.673V39.384C538.673 38.632 538.449 38.04 538.001 37.608C537.569 37.16 537.033 36.936 536.393 36.936C535.577 36.936 534.865 37.256 534.257 37.896C533.649 38.536 533.345 39.328 533.345 40.272V48H531.401V39.384C531.401 38.632 531.201 38.04 530.801 37.608C530.417 37.16 529.905 36.936 529.265 36.936C528.465 36.936 527.729 37.264 527.057 37.92C526.401 38.56 526.073 39.344 526.073 40.272V48H524.129ZM542.704 48V35.592H544.648V37.368H544.696C545.096 36.744 545.616 36.248 546.256 35.88C546.896 35.496 547.592 35.304 548.344 35.304C549.96 35.304 551.04 36.04 551.584 37.512H551.632C552.016 36.824 552.552 36.288 553.24 35.904C553.928 35.504 554.656 35.304 555.424 35.304C556.56 35.304 557.472 35.656 558.16 36.36C558.848 37.048 559.192 38.024 559.192 39.288V48H557.248V39.384C557.248 38.632 557.024 38.04 556.576 37.608C556.144 37.16 555.608 36.936 554.968 36.936C554.152 36.936 553.44 37.256 552.832 37.896C552.224 38.536 551.92 39.328 551.92 40.272V48H549.976V39.384C549.976 38.632 549.776 38.04 549.376 37.608C548.992 37.16 548.48 36.936 547.84 36.936C547.04 36.936 546.304 37.264 545.632 37.92C544.976 38.56 544.648 39.344 544.648 40.272V48H542.704ZM561.278 48V35.592H563.222V37.368H563.27C563.67 36.744 564.19 36.248 564.83 35.88C565.47 35.496 566.166 35.304 566.918 35.304C568.534 35.304 569.614 36.04 570.158 37.512H570.206C570.59 36.824 571.126 36.288 571.814 35.904C572.502 35.504 573.23 35.304 573.998 35.304C575.134 35.304 576.046 35.656 576.734 36.36C577.422 37.048 577.766 38.024 577.766 39.288V48H575.822V39.384C575.822 38.632 575.598 38.04 575.15 37.608C574.718 37.16 574.182 36.936 573.542 36.936C572.726 36.936 572.014 37.256 571.406 37.896C570.798 38.536 570.494 39.328 570.494 40.272V48H568.55V39.384C568.55 38.632 568.35 38.04 567.95 37.608C567.566 37.16 567.054 36.936 566.414 36.936C565.614 36.936 564.878 37.264 564.206 37.92C563.55 38.56 563.222 39.344 563.222 40.272V48H561.278ZM585.157 48.336C583.317 48.336 581.853 47.72 580.765 46.488C579.693 45.24 579.157 43.68 579.157 41.808C579.157 39.968 579.701 38.424 580.789 37.176C581.893 35.912 583.309 35.28 585.037 35.28C586.861 35.28 588.269 35.92 589.261 37.2C590.253 38.464 590.749 40.152 590.749 42.264H581.149C581.229 43.576 581.613 44.648 582.301 45.48C583.005 46.296 583.957 46.704 585.157 46.704C587.013 46.704 588.157 45.856 588.589 44.16H590.485C590.197 45.488 589.589 46.52 588.661 47.256C587.733 47.976 586.565 48.336 585.157 48.336ZM587.629 37.872C587.005 37.168 586.141 36.816 585.037 36.816C583.933 36.816 583.053 37.184 582.397 37.92C581.757 38.656 581.357 39.616 581.197 40.8H588.661C588.597 39.552 588.253 38.576 587.629 37.872ZM594.114 35.592V37.224H594.162C595.122 35.944 596.434 35.304 598.098 35.304C599.41 35.304 600.434 35.648 601.17 36.336C601.906 37.024 602.274 38.008 602.274 39.288V48H600.33V39.456C600.33 38.656 600.082 38.04 599.586 37.608C599.09 37.16 598.402 36.936 597.522 36.936C596.53 36.936 595.714 37.256 595.074 37.896C594.434 38.536 594.114 39.36 594.114 40.368V48H592.17V35.592H594.114ZM609.17 48.36C607.474 48.36 606.13 47.776 605.138 46.608C604.162 45.424 603.674 43.832 603.674 41.832C603.674 39.816 604.186 38.224 605.21 37.056C606.234 35.888 607.538 35.304 609.122 35.304C610.802 35.304 612.098 35.984 613.01 37.344H613.058V30.84H615.002V48H613.058V46.488H613.01C612.034 47.736 610.754 48.36 609.17 48.36ZM609.242 46.728C610.57 46.728 611.554 46.288 612.194 45.408C612.85 44.528 613.178 43.344 613.178 41.856C613.178 40.384 612.826 39.2 612.122 38.304C611.434 37.408 610.466 36.96 609.218 36.96C608.082 36.96 607.202 37.416 606.578 38.328C605.97 39.224 605.666 40.4 605.666 41.856C605.666 43.312 605.97 44.488 606.578 45.384C607.202 46.28 608.09 46.728 609.242 46.728ZM626.899 48.12C625.667 48.12 624.955 47.504 624.763 46.272H624.739C623.715 47.584 622.339 48.24 620.611 48.24C619.379 48.24 618.371 47.944 617.587 47.352C616.803 46.76 616.411 45.904 616.411 44.784C616.411 44.208 616.499 43.712 616.675 43.296C616.867 42.864 617.107 42.52 617.395 42.264C617.683 41.992 618.075 41.76 618.571 41.568C619.083 41.36 619.571 41.208 620.035 41.112C620.499 41 621.091 40.888 621.811 40.776C622.275 40.712 622.603 40.664 622.795 40.632C623.003 40.584 623.267 40.52 623.587 40.44C623.907 40.344 624.131 40.24 624.259 40.128C624.387 40.016 624.507 39.864 624.619 39.672C624.731 39.48 624.787 39.256 624.787 39C624.787 38.296 624.539 37.76 624.043 37.392C623.563 37.008 622.883 36.816 622.003 36.816C620.003 36.816 618.971 37.728 618.907 39.552H617.035C617.067 38.288 617.499 37.272 618.331 36.504C619.179 35.736 620.395 35.352 621.979 35.352C625.035 35.352 626.563 36.664 626.563 39.288V45.192C626.563 45.736 626.651 46.12 626.827 46.344C627.019 46.568 627.371 46.624 627.883 46.512H627.955V47.928C627.635 48.056 627.283 48.12 626.899 48.12ZM621.043 46.752C622.243 46.752 623.171 46.408 623.827 45.72C624.483 45.016 624.811 44.248 624.811 43.416V41.304C624.219 41.672 623.275 41.976 621.979 42.216C621.499 42.312 621.123 42.392 620.851 42.456C620.579 42.504 620.267 42.6 619.915 42.744C619.563 42.872 619.299 43.016 619.123 43.176C618.947 43.336 618.795 43.552 618.667 43.824C618.539 44.08 618.475 44.384 618.475 44.736C618.475 46.08 619.331 46.752 621.043 46.752ZM627.883 37.176V35.592H629.683V31.68H631.627V35.592H634.027V37.176H631.627V45.24C631.627 46.008 632.043 46.392 632.875 46.392C633.227 46.392 633.571 46.336 633.907 46.224H633.979V47.904C633.451 48.016 632.931 48.072 632.419 48.072C630.595 48.072 629.683 47.272 629.683 45.672V37.176H627.883ZM635.555 48V35.592H637.499V48H635.555ZM635.555 33.24V30.84H637.499V33.24H635.555ZM649.316 46.464C648.228 47.712 646.78 48.336 644.972 48.336C643.164 48.336 641.708 47.712 640.604 46.464C639.516 45.216 638.972 43.664 638.972 41.808C638.972 39.952 639.516 38.4 640.604 37.152C641.708 35.904 643.164 35.28 644.972 35.28C646.78 35.28 648.228 35.904 649.316 37.152C650.404 38.4 650.948 39.952 650.948 41.808C650.948 43.664 650.404 45.216 649.316 46.464ZM641.996 45.336C642.7 46.248 643.692 46.704 644.972 46.704C646.252 46.704 647.236 46.248 647.924 45.336C648.612 44.408 648.956 43.232 648.956 41.808C648.956 40.368 648.604 39.192 647.9 38.28C647.212 37.352 646.236 36.888 644.972 36.888C643.692 36.888 642.7 37.352 641.996 38.28C641.308 39.208 640.964 40.384 640.964 41.808C640.964 43.232 641.308 44.408 641.996 45.336ZM654.351 35.592V37.224H654.399C655.359 35.944 656.671 35.304 658.335 35.304C659.647 35.304 660.671 35.648 661.407 36.336C662.143 37.024 662.511 38.008 662.511 39.288V48H660.567V39.456C660.567 38.656 660.319 38.04 659.823 37.608C659.327 37.16 658.639 36.936 657.759 36.936C656.767 36.936 655.951 37.256 655.311 37.896C654.671 38.536 654.351 39.36 654.351 40.368V48H652.407V35.592H654.351ZM668.235 48V30.84H670.395V46.008H679.395V48H668.235ZM685.591 48.336C683.751 48.336 682.287 47.72 681.199 46.488C680.127 45.24 679.591 43.68 679.591 41.808C679.591 39.968 680.135 38.424 681.223 37.176C682.327 35.912 683.743 35.28 685.471 35.28C687.295 35.28 688.703 35.92 689.695 37.2C690.687 38.464 691.183 40.152 691.183 42.264H681.583C681.663 43.576 682.047 44.648 682.735 45.48C683.439 46.296 684.391 46.704 685.591 46.704C687.447 46.704 688.591 45.856 689.023 44.16H690.919C690.631 45.488 690.023 46.52 689.095 47.256C688.167 47.976 686.999 48.336 685.591 48.336ZM688.063 37.872C687.439 37.168 686.575 36.816 685.471 36.816C684.367 36.816 683.487 37.184 682.831 37.92C682.191 38.656 681.791 39.616 681.631 40.8H689.095C689.031 39.552 688.687 38.576 688.063 37.872ZM691.578 37.176V35.592H693.378V31.68H695.322V35.592H697.722V37.176H695.322V45.24C695.322 46.008 695.738 46.392 696.57 46.392C696.922 46.392 697.266 46.336 697.602 46.224H697.674V47.904C697.146 48.016 696.626 48.072 696.114 48.072C694.29 48.072 693.378 47.272 693.378 45.672V37.176H691.578ZM698.106 37.176V35.592H699.906V31.68H701.85V35.592H704.25V37.176H701.85V45.24C701.85 46.008 702.266 46.392 703.098 46.392C703.45 46.392 703.794 46.336 704.13 46.224H704.202V47.904C703.674 48.016 703.154 48.072 702.642 48.072C700.818 48.072 699.906 47.272 699.906 45.672V37.176H698.106ZM710.964 48.336C709.124 48.336 707.66 47.72 706.572 46.488C705.5 45.24 704.964 43.68 704.964 41.808C704.964 39.968 705.508 38.424 706.596 37.176C707.7 35.912 709.116 35.28 710.844 35.28C712.668 35.28 714.076 35.92 715.068 37.2C716.06 38.464 716.556 40.152 716.556 42.264H706.956C707.036 43.576 707.42 44.648 708.108 45.48C708.812 46.296 709.764 46.704 710.964 46.704C712.82 46.704 713.964 45.856 714.396 44.16H716.292C716.004 45.488 715.396 46.52 714.468 47.256C713.54 47.976 712.372 48.336 710.964 48.336ZM713.436 37.872C712.812 37.168 711.948 36.816 710.844 36.816C709.74 36.816 708.86 37.184 708.204 37.92C707.564 38.656 707.164 39.616 707.004 40.8H714.468C714.404 39.552 714.06 38.576 713.436 37.872ZM719.921 35.592V37.656H719.969C720.369 37 720.889 36.472 721.529 36.072C722.169 35.656 722.881 35.448 723.665 35.448C723.953 35.448 724.217 35.496 724.457 35.592V37.464H724.385C724.145 37.384 723.857 37.344 723.521 37.344C722.529 37.344 721.681 37.696 720.977 38.4C720.273 39.088 719.921 39.992 719.921 41.112V48H717.977V35.592H719.921ZM724.697 50.832C726.569 47.392 727.505 43.768 727.505 39.96C727.505 36.44 726.569 33.088 724.697 29.904H726.281C728.617 33.168 729.785 36.52 729.785 39.96C729.785 42.056 729.473 43.968 728.849 45.696C728.241 47.424 727.385 49.136 726.281 50.832H724.697Z" fill="#273E47"/>
<rect x="0.5" y="0.5" width="920" height="79" rx="3.5" stroke="#B7BFC2"/>
</svg>
