<svg width="29" height="28" viewBox="0 0 29 28" fill="none" xmlns="http://www.w3.org/2000/svg">
<path d="M16.9253 1.75C17.1106 1.75001 17.291 1.80881 17.4407 1.91793C17.5904 2.02706 17.7016 2.18089 17.7583 2.35725L18.7208 5.348C19.1251 5.54575 19.5118 5.768 19.8811 6.01825L22.9541 5.35675C23.1353 5.31807 23.324 5.33789 23.4932 5.41337C23.6624 5.48885 23.8033 5.61608 23.8956 5.77675L26.3211 9.975C26.4137 10.1356 26.4529 10.3214 26.4331 10.5057C26.4133 10.69 26.3355 10.8633 26.2108 11.0005L24.1021 13.328C24.1328 13.7743 24.1328 14.2222 24.1021 14.6685L26.2108 16.9995C26.3355 17.1367 26.4133 17.31 26.4331 17.4943C26.4529 17.6786 26.4137 17.8644 26.3211 18.025L23.8956 22.225C23.8031 22.3853 23.6621 22.5122 23.4929 22.5874C23.3237 22.6625 23.1351 22.6821 22.9541 22.6432L19.8811 21.9818C19.5136 22.2302 19.1251 22.4543 18.7226 22.652L17.7583 25.6427C17.7016 25.8191 17.5904 25.9729 17.4407 26.0821C17.291 26.1912 17.1106 26.25 16.9253 26.25H12.0743C11.8891 26.25 11.7086 26.1912 11.5589 26.0821C11.4092 25.9729 11.298 25.8191 11.2413 25.6427L10.2806 22.6537C9.87741 22.4566 9.48854 22.2315 9.11682 21.98L6.04557 22.6432C5.86439 22.6819 5.6756 22.6621 5.5064 22.5866C5.3372 22.5112 5.19633 22.3839 5.10407 22.2233L2.67857 18.025C2.58595 17.8644 2.54672 17.6786 2.56654 17.4943C2.58635 17.31 2.66419 17.1367 2.78882 16.9995L4.89757 14.6685C4.86703 14.2234 4.86703 13.7766 4.89757 13.3315L2.78882 11.0005C2.66419 10.8633 2.58635 10.69 2.56654 10.5057C2.54672 10.3214 2.58595 10.1356 2.67857 9.975L5.10407 5.775C5.19658 5.61465 5.33757 5.48778 5.50674 5.41263C5.67592 5.33747 5.86457 5.31791 6.04557 5.35675L9.11682 6.02C9.48782 5.76975 9.87632 5.544 10.2806 5.34625L11.2431 2.35725C11.2996 2.18145 11.4102 2.02804 11.5592 1.91896C11.7082 1.80989 11.8879 1.75074 12.0726 1.75H16.9236H16.9253ZM16.2848 3.5H12.7148L11.7208 6.59225L11.0506 6.9195C10.7211 7.08074 10.403 7.26434 10.0986 7.469L9.47907 7.889L6.30107 7.203L4.51607 10.297L6.69482 12.7085L6.64232 13.4505C6.61718 13.8164 6.61718 14.1836 6.64232 14.5495L6.69482 15.2915L4.51257 17.703L6.29932 20.797L9.47732 20.1128L10.0968 20.531C10.4013 20.7357 10.7193 20.9193 11.0488 21.0805L11.7191 21.4077L12.7148 24.5H16.2883L17.2858 21.406L17.9543 21.0805C18.2835 20.9196 18.601 20.736 18.9046 20.531L19.5223 20.1128L22.7021 20.797L24.4871 17.703L22.3066 15.2915L22.3591 14.5495C22.3843 14.183 22.3843 13.8152 22.3591 13.4487L22.3066 12.7067L24.4888 10.297L22.7021 7.203L19.5223 7.8855L18.9046 7.469C18.601 7.26393 18.2835 7.08031 17.9543 6.9195L17.2858 6.594L16.2866 3.5H16.2848ZM14.4998 8.75C15.8922 8.75 17.2276 9.30312 18.2121 10.2877C19.1967 11.2723 19.7498 12.6076 19.7498 14C19.7498 15.3924 19.1967 16.7277 18.2121 17.7123C17.2276 18.6969 15.8922 19.25 14.4998 19.25C13.1074 19.25 11.7721 18.6969 10.7875 17.7123C9.80295 16.7277 9.24982 15.3924 9.24982 14C9.24982 12.6076 9.80295 11.2723 10.7875 10.2877C11.7721 9.30312 13.1074 8.75 14.4998 8.75ZM14.4998 10.5C13.5716 10.5 12.6813 10.8687 12.0249 11.5251C11.3686 12.1815 10.9998 13.0717 10.9998 14C10.9998 14.9283 11.3686 15.8185 12.0249 16.4749C12.6813 17.1313 13.5716 17.5 14.4998 17.5C15.4281 17.5 16.3183 17.1313 16.9747 16.4749C17.6311 15.8185 17.9998 14.9283 17.9998 14C17.9998 13.0717 17.6311 12.1815 16.9747 11.5251C16.3183 10.8687 15.4281 10.5 14.4998 10.5Z" fill="#6A7FDB"/>
</svg>
