<svg width="136" height="30" viewBox="0 0 136 30" fill="none" xmlns="http://www.w3.org/2000/svg">
<g clip-path="url(#clip0_282_1036)">
<path d="M70.5853 0C70.5853 0.0970874 70.5853 0.19417 70.5853 0.291258V24.5437H68.1069C68.0877 24.1685 68.0877 23.7926 68.1069 23.4175V21.1651C68.065 21.1736 68.0257 21.1922 67.9923 21.2192C67.9589 21.2462 67.9323 21.2809 67.9148 21.3204C67.5333 21.8646 67.1024 22.3717 66.6276 22.835C65.7393 23.7675 64.6171 24.4386 63.3808 24.7767C62.826 24.9063 62.2594 24.9779 61.6901 24.9903C60.2914 25.0112 58.9113 24.6642 57.6853 23.9833C56.4593 23.3025 55.4295 22.3112 54.6969 21.1068C53.9563 19.9354 53.4959 18.6058 53.352 17.2233C53.2846 16.474 53.2846 15.7201 53.352 14.9709C53.4739 13.1542 54.1445 11.4191 55.2733 10C56.4322 8.43429 58.1218 7.35573 60.0187 6.97088C61.7515 6.56178 63.5722 6.7961 65.1483 7.63107C65.8682 8.03158 66.5174 8.54993 67.0695 9.16505C67.3827 9.4858 67.6717 9.82981 67.934 10.1942L68.1069 10.4272C68.1132 10.3821 68.1132 10.3363 68.1069 10.2913V0H70.5853ZM55.8304 15.8447C55.8304 16.2524 55.8304 16.6602 55.8304 17.068C55.968 18.1356 56.3567 19.1543 56.9639 20.0388C57.6395 21.047 58.6108 21.8158 59.7411 22.2372C60.8714 22.6586 62.1039 22.7115 63.2655 22.3884C64.2747 22.1477 65.2073 21.653 65.9765 20.9503C66.7458 20.2475 67.3266 19.3595 67.6651 18.3689C68.1654 17.0002 68.2392 15.5094 67.8764 14.0971C67.6367 13.0137 67.1177 12.0137 66.372 11.1987C65.6263 10.3836 64.6804 9.78247 63.6305 9.45631C62.8214 9.18031 61.9607 9.09399 61.1137 9.20388C60.011 9.31639 58.9637 9.74786 58.0974 10.4466C57.3509 11.0453 56.7688 11.8275 56.4068 12.7184C56.0034 13.7092 55.8071 14.7736 55.8304 15.8447Z" fill="white"/>
<path d="M135.484 16.8159H122.208C122.101 16.7888 121.989 16.7888 121.882 16.8159C121.853 17.0025 121.853 17.1925 121.882 17.379C122.04 18.3933 122.428 19.3569 123.015 20.1946C123.455 20.8191 124.012 21.3498 124.655 21.7564C125.298 22.1629 126.014 22.4372 126.762 22.5635C128.006 22.7889 129.288 22.668 130.469 22.214C131.256 21.8846 131.983 21.4252 132.621 20.8548L133.14 20.3693L133.294 20.2334C133.505 20.3888 134.735 21.4761 134.888 21.6703L134.773 21.8062C133.974 22.6842 133.04 23.4253 132.006 24.0004C131.314 24.3676 130.568 24.6231 129.797 24.7577C129.106 24.8841 128.405 24.9427 127.703 24.9324C126.591 24.9335 125.49 24.7109 124.464 24.2775C123.438 23.8441 122.508 23.2086 121.728 22.4082C120.506 21.1609 119.682 19.5711 119.365 17.8451C119.183 16.958 119.125 16.0495 119.192 15.146C119.285 13.1677 119.998 11.2705 121.228 9.72856C122.353 8.28927 123.946 7.29876 125.724 6.93245C126.323 6.7965 126.936 6.73778 127.549 6.75769C128.405 6.74618 129.257 6.88412 130.066 7.16545C131.819 7.75224 133.287 8.98681 134.177 10.6218C134.662 11.4881 135.012 12.4246 135.215 13.3985C135.31 13.8328 135.368 14.2745 135.388 14.7189C135.348 14.8913 135.348 15.0707 135.388 15.2431L135.484 16.8159ZM132.852 14.8742V14.7577C132.808 14.2726 132.724 13.792 132.602 13.3208C132.408 12.567 132.09 11.8515 131.661 11.2043C131 10.2494 130.027 9.56157 128.913 9.26254C128.588 9.16523 128.253 9.10659 127.914 9.08779C127.355 9.02894 126.789 9.06835 126.243 9.20429C125.334 9.41367 124.501 9.87806 123.841 10.5441C122.732 11.7086 122.053 13.2242 121.92 14.8354C121.92 14.8354 121.92 14.9324 121.92 14.9713H132.852V14.8742Z" fill="white"/>
<path d="M0.172902 29.9614H0V6.54395H0.115268V29.8449L0.172902 29.9614Z" fill="white"/>
<path d="M0.172913 29.961V29.8057V6.5047H5.18728C5.18728 6.91246 5.18728 7.32023 5.18728 7.728C5.18728 8.13577 5.18728 8.54353 5.18728 8.9513C5.30255 8.9513 5.32178 8.9513 5.36021 8.8348C5.84851 8.21538 6.42469 7.6723 7.07009 7.22314C7.88961 6.632 8.8523 6.27636 9.85584 6.19402C10.4939 6.11632 11.139 6.11632 11.777 6.19402C13.4228 6.39718 14.9593 7.13281 16.1574 8.2911C17.227 9.37346 18.0127 10.7082 18.4437 12.1746C18.6648 12.9135 18.8002 13.6759 18.8471 14.4464C18.8759 14.9509 18.8759 15.4566 18.8471 15.961C18.8349 17.1271 18.627 18.2827 18.2323 19.3785C17.8833 20.3595 17.3699 21.2725 16.7145 22.0775C15.5913 23.4647 14.0197 24.4068 12.2766 24.7377C11.2166 24.9414 10.1281 24.9414 9.06813 24.7377C8.42812 24.6212 7.81549 24.384 7.26219 24.0387C6.55513 23.5959 5.90912 23.0605 5.34098 22.4464C5.29238 22.3852 5.23393 22.3327 5.16808 22.2911C5.16808 22.2911 5.16808 22.4464 5.16808 22.5047V29.5921C5.17763 29.6954 5.17763 29.7994 5.16808 29.9028H4.95674C3.471 29.9028 1.99168 29.9028 0.518746 29.9028L0.172913 29.961ZM13.7751 15.5921C13.7751 15.3785 13.7751 15.1843 13.7751 14.9707C13.7206 14.2021 13.5044 13.454 13.1411 12.7765C12.7519 12.0256 12.1477 11.4108 11.4073 11.0124C10.667 10.6141 9.82498 10.4507 8.9913 10.5435C8.10013 10.6232 7.26438 11.0146 6.62819 11.6503C5.9497 12.3237 5.47635 13.1795 5.26414 14.1163C5.11115 14.8041 5.0722 15.5128 5.14887 16.2134C5.23317 17.1941 5.57835 18.1334 6.14788 18.9319C6.7105 19.7012 7.51855 20.2508 8.4356 20.4878C9.35264 20.7248 10.3225 20.6348 11.1815 20.2329C12.0884 19.7918 12.82 19.0524 13.2564 18.1358C13.6496 17.346 13.8599 16.4761 13.8712 15.5921H13.7751Z" fill="white"/>
<path d="M49.3368 21.6891L48.4914 20.8542C48.2032 20.6018 47.8958 20.3493 47.5692 20.1163C47.2426 19.8833 46.916 19.7086 46.5894 19.5144C46.2454 19.3213 45.8854 19.1589 45.5135 19.029L45.3598 19.1649C44.7145 19.8705 43.8569 20.3414 42.9199 20.5047C42.2228 20.6501 41.5037 20.6501 40.8066 20.5047C40.0834 20.3176 39.4211 19.9427 38.8854 19.4173L38.6932 19.2425C37.1861 19.8543 35.8621 20.8513 34.8508 22.1357L34.601 21.8639C33.9207 21.1029 33.3748 20.2293 32.9872 19.2814C32.628 18.3958 32.4076 17.4589 32.334 16.5047C32.2264 15.3472 32.3439 14.1797 32.6798 13.0678C33.0539 11.7876 33.6974 10.6042 34.5662 9.59875C35.435 8.59331 36.5086 7.78956 37.7134 7.24255C38.6553 6.77924 39.6692 6.48364 40.7105 6.36876C42.8342 6.08947 44.991 6.49014 46.8776 7.51439C48.0084 8.12358 48.9967 8.97102 49.7756 9.99942C50.5545 11.0278 51.1058 12.2132 51.3925 13.4756C51.6255 14.4273 51.697 15.4122 51.6038 16.3882C51.5493 17.306 51.3549 18.2099 51.0274 19.0678C50.6489 20.0191 50.1237 20.9039 49.4712 21.6891H49.3368ZM41.9593 12.8154C41.2391 12.8153 40.5481 13.1032 40.037 13.6161C39.5259 14.129 39.2362 14.8253 39.2312 15.5532C39.2286 15.9144 39.2968 16.2725 39.4318 16.6069C39.5668 16.9413 39.766 17.2455 40.0178 17.5017C40.2696 17.758 40.5691 17.9615 40.899 18.1003C41.2289 18.2391 41.5827 18.3105 41.9401 18.3105C42.2933 18.308 42.6426 18.2351 42.9679 18.0962C43.2933 17.9572 43.5884 17.7548 43.8364 17.5006C44.0844 17.2463 44.2804 16.9452 44.4132 16.6144C44.546 16.2836 44.6131 15.9296 44.6106 15.5726C44.6158 14.8531 44.3405 14.1605 43.8444 13.6445C43.3482 13.1285 42.671 12.8306 41.9593 12.8154Z" fill="white"/>
<path d="M90.2393 29.9999H88.222C85.8373 29.8217 83.5427 29.0039 81.5747 27.631C81.7476 27.2815 81.9589 26.9514 82.151 26.6213C82.3431 26.2912 82.5352 25.9611 82.7274 25.6116L83.0156 25.7864C83.986 26.4721 85.0552 27.0026 86.1856 27.3592C87.0244 27.6331 87.8979 27.7835 88.7792 27.8058C89.2206 27.8349 89.6634 27.8349 90.1048 27.8058C90.9707 27.7744 91.821 27.5629 92.6024 27.1844C93.2967 26.861 93.9087 26.3815 94.3915 25.7825C94.8743 25.1834 95.2152 24.4807 95.3881 23.7281C95.5333 23.1569 95.6107 22.5702 95.6187 21.9805C95.6187 21.2621 95.6187 20.5242 95.6187 19.7864C95.5226 19.7864 95.4842 19.7864 95.4458 19.9417C94.7306 20.8392 93.8815 21.6188 92.929 22.2524C92.1984 22.7305 91.3827 23.0602 90.5275 23.2232C89.698 23.3816 88.8497 23.4143 88.0107 23.3203C86.4331 23.1859 84.9319 22.5752 83.702 21.5676C82.472 20.56 81.5702 19.202 81.1136 17.6698C80.9458 17.0935 80.8364 16.5015 80.7869 15.9029C80.7295 15.2958 80.7295 14.6847 80.7869 14.0776C80.8925 12.9356 81.2471 11.8314 81.8251 10.8444C82.4031 9.85735 83.1902 9.01193 84.1299 8.36888C85.2028 7.61172 86.4429 7.13172 87.7417 6.97082C89.4127 6.721 91.1192 7.00617 92.6216 7.78635C93.3805 8.17811 94.0637 8.70424 94.6389 9.33975C94.9463 9.63101 95.2153 9.96111 95.5034 10.2718C95.5034 10.2718 95.5034 10.2718 95.5034 10.1165V7.57276C95.5034 7.57276 95.5034 7.37859 95.5034 7.2815C95.5034 7.18442 97.7897 7.2815 98.0394 7.2815V21.7864C98.0526 22.8056 97.9101 23.8208 97.6168 24.7961C97.2955 25.8759 96.7233 26.8623 95.9479 27.673C95.1725 28.4837 94.2164 29.0951 93.1596 29.4563C92.4268 29.7239 91.6662 29.9063 90.8925 29.9999H90.5083H90.2393ZM89.3748 20.9514H90.2009C91.225 20.8413 92.2074 20.4815 93.0635 19.9029C93.7798 19.4503 94.3853 18.8395 94.8345 18.1164C95.2837 17.3933 95.565 16.5768 95.6571 15.7281C95.7447 14.9602 95.6859 14.1825 95.4842 13.4368C95.1185 12.209 94.3621 11.1374 93.3325 10.3883C92.4275 9.72822 91.3749 9.30476 90.2687 9.15568C89.1625 9.00661 88.0369 9.13655 86.9925 9.53393C86.2434 9.80324 85.5641 10.2399 85.0053 10.8115C84.4464 11.383 84.0224 12.0747 83.7648 12.8349C83.3781 13.8829 83.285 15.0184 83.4959 16.1165C83.6416 17.002 83.9926 17.8401 84.5201 18.5623C85.0477 19.2846 85.7369 19.8703 86.5314 20.2718C87.4103 20.7289 88.3864 20.9622 89.3748 20.9514Z" fill="white"/>
<path d="M117.424 16.835H103.803C103.803 17.0097 103.803 17.1262 103.803 17.2621C103.925 18.165 104.218 19.0354 104.668 19.8252C105.1 20.5664 105.69 21.2015 106.394 21.685C107.098 22.1685 107.9 22.4882 108.741 22.6214C109.972 22.8568 111.244 22.7356 112.41 22.2718C113.108 21.9817 113.757 21.582 114.331 21.0874C114.581 20.8932 114.792 20.6796 115.023 20.466L115.215 20.2913C115.407 20.4272 116.618 21.5146 116.81 21.7282L116.618 21.9417C115.869 22.7652 114.993 23.4603 114.024 24C113.303 24.3943 112.525 24.6697 111.718 24.8155C111.022 24.9515 110.314 25.0101 109.605 24.9903C108.43 24.9884 107.269 24.7368 106.196 24.2518C105.124 23.7667 104.165 23.059 103.38 22.1748C102.333 21.0025 101.616 19.5674 101.306 18.0194C101.091 16.979 101.039 15.911 101.152 14.8544C101.297 13.0431 101.965 11.3146 103.073 9.8835C104.149 8.48263 105.657 7.48489 107.357 7.04854C108.086 6.86473 108.836 6.78628 109.586 6.81554C110.409 6.82469 111.225 6.96223 112.007 7.2233C113.805 7.84811 115.301 9.13875 116.195 10.835C116.651 11.6998 116.975 12.6294 117.156 13.5922C117.338 14.5451 117.415 15.5154 117.386 16.4854C117.386 16.4854 117.424 16.699 117.424 16.835ZM114.812 14.8932C114.803 14.8288 114.803 14.7635 114.812 14.699C114.754 14.1318 114.638 13.5722 114.466 13.0291C114.284 12.3319 113.978 11.6739 113.563 11.0874C112.905 10.1468 111.95 9.46168 110.854 9.14564C110.533 9.064 110.205 9.01201 109.874 8.99029C109.308 8.93152 108.736 8.97093 108.183 9.1068C107.277 9.32001 106.45 9.79178 105.801 10.466C104.679 11.6612 104.001 13.2115 103.88 14.8544H104.034C104.917 14.9515 114.504 14.932 114.812 14.8932Z" fill="white"/>
<path d="M31.6424 6.21387C31.6424 6.54396 31.6424 11.2818 31.6424 11.5343H31.4119C30.9086 11.5379 30.4068 11.5899 29.9133 11.6896C28.7752 11.9227 27.7625 12.5728 27.0699 13.5148C26.6819 14.0549 26.4073 14.6694 26.263 15.3207C26.0638 16.0874 25.9668 16.8775 25.9748 17.6702C25.9748 18.175 25.9748 18.6799 25.9748 19.1653V24.6022C25.7251 24.6022 21.4023 24.6022 20.9412 24.6022C20.9412 24.6022 20.9412 24.6022 20.9412 24.4469V6.62164H21.1142H25.9556C25.9556 6.62164 25.9556 6.77697 25.9556 6.87406V10.0974C26.0516 10.0974 26.0709 10.0974 26.0901 9.94203C26.3707 9.31825 26.7255 8.73139 27.1468 8.19445C27.3959 7.89728 27.6656 7.61827 27.9537 7.3595C28.5044 6.87974 29.1647 6.54608 29.8749 6.38862C30.374 6.28484 30.8832 6.23924 31.3926 6.2527L31.6424 6.21387Z" fill="white"/>
<path d="M77.4441 24.5635C77.0598 24.5635 75.1578 24.5635 74.9465 24.5635V7.24316H77.4441V24.5053V24.5635Z" fill="white"/>
<path d="M77.6362 0.543893C77.6362 0.757486 77.6362 2.97108 77.6362 3.34001H74.7351C74.7351 3.34001 74.7351 3.34001 74.7351 3.24292V0.640979C74.7261 0.602676 74.7261 0.562775 74.7351 0.524472C74.9849 0.505054 77.3864 0.505058 77.6362 0.543893Z" fill="white"/>
</g>
<defs>
<clipPath id="clip0_282_1036">
<rect width="135.484" height="30" fill="white"/>
</clipPath>
</defs>
</svg>
