<svg width="160" height="40" viewBox="0 0 160 40" fill="none" xmlns="http://www.w3.org/2000/svg">
<g clip-path="url(#clip0_527_3105)">
<path d="M63.1428 23.4284L71.9716 34.2856H65L57.1428 24.3144V34.2856H51.4284V5.71437H57.1428V22.5144L64.4 14.2856H71.6856L63.1428 23.4284ZM40.2856 13.7144C39.0345 13.7331 37.8065 14.0548 36.7069 14.6519C35.6072 15.249 34.6687 16.1037 33.9716 17.1428V14.2856H28.5716V34.2856H34.2856V24.9428C34.2106 24.2647 34.2759 23.5784 34.4776 22.9266C34.6793 22.2748 35.0129 21.6715 35.4578 21.1542C35.9027 20.6369 36.4493 20.2168 37.0636 19.9199C37.6779 19.623 38.3467 19.4557 39.0284 19.4284C42.3428 19.4284 42.8572 22.6856 42.8572 24.9428V34.2856H48.5716V23.6856C48.5716 17.4 46.4856 13.7144 40.4 13.7144H40.2856ZM91.4284 24.7428C91.4503 25.1616 91.4503 25.5812 91.4284 26H76.4284V26.2C76.6719 27.3915 77.332 28.4571 78.2903 29.2059C79.2485 29.9546 80.4422 30.3375 81.6572 30.2856C82.621 30.3275 83.5834 30.1746 84.4867 29.8359C85.39 29.4972 86.2157 28.9797 86.9144 28.3144L90.7144 31.1716C89.51 32.4006 88.0614 33.3636 86.462 33.9984C84.8626 34.6332 83.1479 34.9258 81.4284 34.8572C80.0045 34.9472 78.5778 34.7305 77.2448 34.2219C75.9118 33.7133 74.7034 32.9245 73.7013 31.9089C72.6993 30.8932 71.9268 29.6744 71.4361 28.3346C70.9455 26.9949 70.7481 25.5654 70.8572 24.1428C70.8279 22.7385 71.0882 21.3431 71.6219 20.0438C72.1555 18.7445 72.9511 17.569 73.959 16.5906C74.9669 15.6122 76.1655 14.8519 77.4801 14.357C78.7947 13.8622 80.1971 13.6434 81.6 13.7144C86.9716 13.7144 91.4284 17.5144 91.4284 24.7428ZM86.1144 22.2856C86.0934 21.7197 85.9573 21.164 85.7146 20.6523C85.4719 20.1406 85.1275 19.6838 84.7024 19.3095C84.2774 18.9353 83.7806 18.6515 83.2423 18.4755C82.7041 18.2994 82.1356 18.2348 81.5716 18.2856C79.0591 18.0141 76.7838 19.7838 76.4284 22.2856H86.1144ZM5.71437 5.71437H0V34.2856H17.1428V28.5719H5.71437V5.71437ZM108.572 5.71437H114.286V34.2856H108.886V32.2856C108.2 33.1304 107.326 33.803 106.334 34.2495C105.342 34.6961 104.259 34.9042 103.172 34.8572C101.843 34.8231 100.536 34.5177 99.3307 33.9599C98.125 33.4021 97.0461 32.6036 96.1603 31.6134C95.2746 30.6233 94.6006 29.4625 94.18 28.2023C93.7594 26.9422 93.6009 25.6093 93.7144 24.2856C93.5795 22.9601 93.722 21.621 94.1328 20.3535C94.5436 19.0861 95.2138 17.918 96.1006 16.9237C96.9875 15.9293 98.0716 15.1305 99.284 14.578C100.496 14.0254 101.811 13.7313 103.143 13.7144C104.135 13.6709 105.126 13.8253 106.058 14.1687C106.99 14.5121 107.845 15.0375 108.572 15.7144V5.71437ZM109 24.2856C109.09 23.6259 109.037 22.9545 108.846 22.3168C108.654 21.6792 108.328 21.09 107.889 20.5891C107.45 20.0881 106.91 19.6871 106.303 19.413C105.696 19.1388 105.037 18.998 104.372 19C101.638 19.1984 99.5669 21.5491 99.7144 24.2856C99.5669 27.0222 101.638 29.3731 104.372 29.5716C105.037 29.5735 105.696 29.4327 106.303 29.1586C106.91 28.8844 107.451 28.4834 107.889 27.9824C108.328 27.4814 108.654 26.8922 108.846 26.2545C109.037 25.6168 109.09 24.9454 109 24.2856ZM22.8572 5.14281C21.9383 5.15583 21.0586 5.51705 20.3957 6.15351C19.7327 6.78997 19.336 7.65427 19.2856 8.57187C19.2856 10.5441 20.8847 12.1431 22.8572 12.1431C24.8297 12.1431 26.4281 10.5437 26.4281 8.57187C26.3776 7.65438 25.9809 6.7902 25.3181 6.15381C24.6553 5.51742 23.7757 5.15622 22.8569 5.14313L22.8572 5.14281ZM20 34.2856H25.7144V14.2856H20V34.2856ZM160 2.85719V37.1428C160 37.9006 159.699 38.6273 159.163 39.1631C158.627 39.699 157.901 40 157.143 40H122.857C122.099 40 121.373 39.699 120.837 39.1631C120.301 38.6273 120 37.9006 120 37.1428V2.85719C120 2.09941 120.301 1.37268 120.837 0.836851C121.373 0.301024 122.099 0 122.857 0L157.143 0C157.901 0 158.627 0.301024 159.163 0.836851C159.699 1.37268 160 2.09941 160 2.85719ZM131.428 14.2856H125.714V34.2856H131.428V14.2856ZM132.143 8.57156C132.143 6.59906 130.544 5 128.572 5C126.599 5 125 6.59906 125 8.57156C125 10.5437 126.599 12.1428 128.572 12.1428C130.544 12.1428 132.143 10.5437 132.143 8.57156ZM154.286 23.6856C154.286 17.4 152.2 13.7144 146.114 13.7144C144.844 13.7145 143.593 14.0273 142.472 14.6252C141.35 15.2231 140.394 16.0877 139.686 17.1428V14.2856H134.286V34.2856H140V24.9428C139.925 24.2647 139.99 23.5784 140.192 22.9266C140.394 22.2748 140.727 21.6715 141.172 21.1542C141.617 20.6369 142.164 20.2168 142.778 19.9199C143.392 19.623 144.061 19.4557 144.743 19.4284C148.057 19.4284 148.572 22.6856 148.572 24.9428V34.2856H154.286V23.6856Z" fill="#0A66C2"/>
</g>
<defs>
<clipPath id="clip0_527_3105">
<rect width="160" height="40" fill="white"/>
</clipPath>
</defs>
</svg>
