<svg width="32" height="32" viewBox="0 0 32 32" fill="none" xmlns="http://www.w3.org/2000/svg">
<path d="M3.19995 8.00005C3.19995 7.15136 3.53709 6.33742 4.13721 5.73731C4.73733 5.13719 5.55126 4.80005 6.39995 4.80005H17.6C18.4486 4.80005 19.2626 5.13719 19.8627 5.73731C20.4628 6.33742 20.8 7.15136 20.8 8.00005V14.4C20.8 15.2487 20.4628 16.0627 19.8627 16.6628C19.2626 17.2629 18.4486 17.6 17.6 17.6H14.4L9.59995 22.4V17.6H6.39995C5.55126 17.6 4.73733 17.2629 4.13721 16.6628C3.53709 16.0627 3.19995 15.2487 3.19995 14.4V8.00005Z" fill="#273E47"/>
<path d="M24 11.2V14.4C24 16.0973 23.3257 17.7252 22.1255 18.9254C20.9252 20.1257 19.2974 20.8 17.6 20.8H15.7248L12.8992 23.6272C13.3472 23.8656 13.8576 24 14.4 24H17.6L22.4 28.8V24H25.6C26.4487 24 27.2626 23.6628 27.8627 23.0627C28.4628 22.4626 28.8 21.6486 28.8 20.8V14.4C28.8 13.5513 28.4628 12.7373 27.8627 12.1372C27.2626 11.5371 26.4487 11.2 25.6 11.2H24Z" fill="#273E47"/>
</svg>
