<svg width="26" height="32" viewBox="0 0 26 32" fill="none" xmlns="http://www.w3.org/2000/svg">
<path d="M7.99967 16H17.9997M7.99967 22.6667H17.9997M21.333 31H4.66634C3.78229 31 2.93444 30.6488 2.30932 30.0237C1.6842 29.3986 1.33301 28.5507 1.33301 27.6667V4.33333C1.33301 3.44928 1.6842 2.60143 2.30932 1.97631C2.93444 1.35119 3.78229 1 4.66634 1H13.9763C14.4183 1.00009 14.8422 1.17575 15.1547 1.48833L24.178 10.5117C24.4906 10.8242 24.6662 11.248 24.6663 11.69V27.6667C24.6663 28.5507 24.3152 29.3986 23.69 30.0237C23.0649 30.6488 22.2171 31 21.333 31Z" stroke="#E4572E" stroke-width="2" stroke-linecap="round" stroke-linejoin="round"/>
</svg>
